<svg id="Logo" xmlns="http://www.w3.org/2000/svg" viewBox="0 0 465.5 526.56"><defs><style>.cls-1{font-size:69px;fill:#fffdb8;stroke:#231f20;font-family:Raleway-Black, Raleway;}.cls-1,.cls-6{stroke-miterlimit:10;}.cls-2{letter-spacing:-0.01em;}.cls-3{fill:#7c7c7c;}.cls-4{fill:#fff;}.cls-5{fill:#fffdb7;}.cls-6{fill:none;stroke:#fffdb7;stroke-width:4px;}</style></defs><title>Equillibrium_Logo</title><text class="cls-1" transform="translate(0.5 424.93)"><tspan class="cls-2">E</tspan><tspan x="40.43" y="0">QUILIBRIUM</tspan></text><g id="graphics"><ellipse id="shadow" class="cls-3" cx="214.28" cy="178.67" rx="172.44" ry="178.67"/><circle id="white_bg" data-name="white bg" class="cls-4" cx="220.5" cy="178.67" r="167"/><path id="yin_yang_symbol" data-name="yin yang symbol" d="M306,76.57c-95.05,0-172.38,77.79-172.38,173.41S210.94,423.43,306,423.43,478.39,345.62,478.39,250,401.05,76.57,306,76.57Zm24.7,337a83.1,83.1,0,0,0,59.18-79.75c0-44.1-34.1-80.17-77.25-83-1.81-.12-9.09-.12-10.89,0-43.13-2.82-77.26-38.89-77.26-83,0-45.5,36.33-82.45,81.39-83.16a163.7,163.7,0,0,0-64.05,13A162.62,162.62,0,0,1,306,84.57c90.68,0,164.45,74.2,164.45,165.41C470.44,332.77,409.69,401.54,330.69,413.56Z" transform="translate(-85.5 -72.44)"/><g id="laptop"><path id="top" d="M189.24,65.18h41.24a6.38,6.38,0,0,1,6.38,6.38v30.62a0,0,0,0,1,0,0h-54a0,0,0,0,1,0,0V71.56A6.38,6.38,0,0,1,189.24,65.18Z"/><rect id="screen" class="cls-5" x="185.86" y="69.18" width="48" height="31"/><path id="keyboard" d="M177.86,103.18h65a0,0,0,0,1,0,0v2.36a2.64,2.64,0,0,1-2.64,2.64H180.5a2.64,2.64,0,0,1-2.64-2.64v-2.36A0,0,0,0,1,177.86,103.18Z"/><rect id="white" class="cls-4" x="203.86" y="102.18" width="12" height="2"/></g><g id="notebook"><rect id="note" class="cls-6" x="188.86" y="236.18" width="42" height="51.5" rx="1.93" ry="1.93"/><rect id="line_2" data-name="line 2" class="cls-5" x="196.86" y="254.18" width="14" height="2"/><rect id="line_1" data-name="line 1" class="cls-5" x="196.86" y="245.18" width="23" height="2"/><rect id="pen_2" data-name="pen 2" class="cls-5" x="296.78" y="321.63" width="34.2" height="7.39" transform="translate(-223.61 244.79) rotate(-45)"/><polygon id="pen_1" data-name="pen 1" class="cls-5" points="209.89 271.21 211.51 267.35 213.12 263.49 215.44 265.93 217.77 268.37 213.83 269.79 209.89 271.21"/></g></g></svg>